<?xml version="1.0" encoding="UTF-8"?>
<svg xmlns="http://www.w3.org/2000/svg" xmlns:xlink="http://www.w3.org/1999/xlink" width="40px" height="40px" viewBox="0 0 40 40" version="1.1">
<g id="surface1">
<path style=" stroke:none;fill-rule:nonzero;fill:rgb(99.215686%,67.450982%,22.745098%);fill-opacity:1;" d="M 0 0 C 13.199219 0 26.398438 0 40 0 C 40 13.199219 40 26.398438 40 40 C 26.800781 40 13.601562 40 0 40 C 0 26.800781 0 13.601562 0 0 Z M 0 0 "/>
<path style=" stroke:none;fill-rule:nonzero;fill:rgb(10.196079%,8.235294%,9.019608%);fill-opacity:1;" d="M 10.308594 6.179688 C 10.382812 6.179688 10.457031 6.179688 10.53125 6.175781 C 10.613281 6.175781 10.691406 6.175781 10.773438 6.175781 C 10.859375 6.175781 10.941406 6.175781 11.027344 6.175781 C 11.257812 6.175781 11.488281 6.175781 11.71875 6.175781 C 11.863281 6.175781 12.007812 6.175781 12.152344 6.175781 C 12.601562 6.171875 13.054688 6.171875 13.503906 6.171875 C 14.023438 6.171875 14.546875 6.171875 15.066406 6.167969 C 15.46875 6.167969 15.871094 6.167969 16.273438 6.167969 C 16.515625 6.167969 16.753906 6.167969 16.996094 6.164062 C 17.21875 6.164062 17.445312 6.164062 17.671875 6.164062 C 17.792969 6.164062 17.917969 6.164062 18.039062 6.164062 C 18.148438 6.164062 18.148438 6.164062 18.261719 6.164062 C 18.324219 6.164062 18.386719 6.164062 18.453125 6.164062 C 18.65625 6.191406 18.773438 6.253906 18.9375 6.375 C 19.023438 6.546875 19.007812 6.683594 19.011719 6.875 C 19.011719 6.992188 19.011719 6.992188 19.011719 7.113281 C 19.011719 7.203125 19.011719 7.292969 19.011719 7.378906 C 19.011719 7.472656 19.015625 7.566406 19.015625 7.660156 C 19.015625 7.914062 19.019531 8.164062 19.019531 8.417969 C 19.019531 8.683594 19.023438 8.945312 19.023438 9.210938 C 19.027344 9.710938 19.03125 10.210938 19.03125 10.710938 C 19.035156 11.28125 19.039062 11.851562 19.042969 12.421875 C 19.050781 13.59375 19.054688 14.765625 19.0625 15.9375 C 19.132812 15.867188 19.203125 15.796875 19.273438 15.726562 C 19.3125 15.6875 19.351562 15.648438 19.394531 15.609375 C 19.503906 15.496094 19.609375 15.382812 19.710938 15.261719 C 19.875 15.070312 20.042969 14.882812 20.210938 14.695312 C 20.257812 14.640625 20.304688 14.589844 20.355469 14.535156 C 20.449219 14.429688 20.542969 14.328125 20.640625 14.222656 C 20.839844 14 21.042969 13.777344 21.230469 13.542969 C 21.261719 13.507812 21.289062 13.476562 21.316406 13.4375 C 21.398438 13.339844 21.480469 13.242188 21.558594 13.140625 C 21.601562 13.09375 21.644531 13.046875 21.6875 13 C 21.730469 13 21.769531 13 21.8125 13 C 21.828125 12.964844 21.84375 12.929688 21.859375 12.890625 C 21.945312 12.734375 22.046875 12.617188 22.167969 12.484375 C 22.234375 12.410156 22.234375 12.410156 22.304688 12.335938 C 22.347656 12.285156 22.390625 12.238281 22.4375 12.1875 C 22.511719 12.105469 22.582031 12.019531 22.65625 11.9375 C 22.691406 11.898438 22.726562 11.859375 22.761719 11.816406 C 22.84375 11.722656 22.925781 11.625 23.007812 11.53125 C 23.074219 11.453125 23.074219 11.453125 23.144531 11.375 C 23.207031 11.304688 23.207031 11.304688 23.269531 11.230469 C 23.375 11.125 23.375 11.125 23.5 11.125 C 23.515625 11.089844 23.527344 11.058594 23.542969 11.023438 C 23.652344 10.824219 23.796875 10.660156 23.945312 10.488281 C 23.976562 10.453125 24.007812 10.417969 24.039062 10.378906 C 24.390625 9.96875 24.742188 9.570312 25.125 9.1875 C 25.324219 8.964844 25.519531 8.75 25.6875 8.5 C 25.730469 8.5 25.769531 8.5 25.8125 8.5 C 25.828125 8.464844 25.839844 8.433594 25.855469 8.398438 C 25.964844 8.203125 26.109375 8.050781 26.261719 7.890625 C 26.324219 7.824219 26.386719 7.757812 26.449219 7.6875 C 26.480469 7.65625 26.511719 7.625 26.542969 7.589844 C 26.648438 7.476562 26.746094 7.355469 26.847656 7.234375 C 27.398438 6.601562 27.992188 6.320312 28.8125 6.1875 C 29.167969 6.164062 29.519531 6.164062 29.875 6.167969 C 29.976562 6.167969 30.074219 6.167969 30.175781 6.171875 C 30.433594 6.171875 30.695312 6.171875 30.953125 6.175781 C 31.21875 6.175781 31.488281 6.175781 31.753906 6.179688 C 32.273438 6.179688 32.792969 6.183594 33.3125 6.1875 C 33.230469 6.355469 33.148438 6.496094 33.023438 6.636719 C 32.992188 6.675781 32.960938 6.714844 32.925781 6.75 C 32.890625 6.792969 32.855469 6.832031 32.820312 6.871094 C 32.785156 6.910156 32.75 6.953125 32.710938 6.996094 C 32.433594 7.3125 32.148438 7.621094 31.863281 7.929688 C 31.726562 8.074219 31.609375 8.210938 31.5 8.375 C 31.457031 8.375 31.417969 8.375 31.375 8.375 C 31.359375 8.40625 31.347656 8.441406 31.332031 8.476562 C 31.222656 8.675781 31.082031 8.84375 30.9375 9.015625 C 30.894531 9.066406 30.894531 9.066406 30.851562 9.121094 C 30.78125 9.207031 30.703125 9.292969 30.625 9.375 C 30.582031 9.375 30.542969 9.375 30.5 9.375 C 30.484375 9.410156 30.472656 9.445312 30.457031 9.480469 C 30.355469 9.664062 30.226562 9.800781 30.082031 9.953125 C 29.894531 10.15625 29.707031 10.359375 29.527344 10.566406 C 29.273438 10.859375 29.011719 11.148438 28.75 11.4375 C 28.65625 11.542969 28.5625 11.644531 28.46875 11.75 C 28.328125 11.90625 28.183594 12.066406 28.042969 12.222656 C 27.792969 12.5 27.546875 12.777344 27.300781 13.058594 C 27.171875 13.207031 27.039062 13.351562 26.90625 13.5 C 26.53125 13.914062 26.164062 14.335938 25.800781 14.761719 C 25.769531 14.800781 25.738281 14.835938 25.703125 14.875 C 25.566406 15.035156 25.429688 15.195312 25.296875 15.363281 C 25.167969 15.523438 25.023438 15.664062 24.875 15.8125 C 24.652344 16.058594 24.429688 16.304688 24.226562 16.566406 C 24.191406 16.605469 24.160156 16.644531 24.125 16.6875 C 24.082031 16.6875 24.042969 16.6875 24 16.6875 C 23.984375 16.722656 23.96875 16.757812 23.949219 16.796875 C 23.746094 17.183594 23.4375 17.507812 23.125 17.8125 C 23.015625 17.933594 22.910156 18.058594 22.800781 18.183594 C 22.664062 18.335938 22.519531 18.480469 22.375 18.625 C 22.042969 18.980469 21.722656 19.339844 21.40625 19.707031 C 21.3125 19.8125 21.3125 19.8125 21.203125 19.902344 C 21.113281 19.996094 21.113281 19.996094 21.128906 20.121094 C 21.203125 20.289062 21.308594 20.382812 21.441406 20.507812 C 21.527344 20.585938 21.609375 20.667969 21.6875 20.75 C 21.6875 20.792969 21.6875 20.832031 21.6875 20.875 C 21.730469 20.875 21.769531 20.875 21.8125 20.875 C 21.894531 20.96875 21.894531 20.96875 21.992188 21.101562 C 22.195312 21.367188 22.40625 21.621094 22.625 21.875 C 23.4375 22.816406 23.4375 22.816406 23.4375 23 C 23.5 23.019531 23.5625 23.042969 23.625 23.0625 C 23.734375 23.195312 23.734375 23.195312 23.851562 23.371094 C 24.066406 23.675781 24.300781 23.953125 24.554688 24.226562 C 25.0625 24.792969 25.0625 24.792969 25.0625 25 C 25.097656 25.015625 25.136719 25.03125 25.175781 25.046875 C 25.335938 25.136719 25.40625 25.226562 25.515625 25.375 C 25.554688 25.425781 25.59375 25.476562 25.632812 25.527344 C 25.671875 25.582031 25.710938 25.632812 25.75 25.6875 C 26.0625 26.089844 26.390625 26.476562 26.722656 26.863281 C 26.949219 27.125 27.164062 27.390625 27.378906 27.660156 C 27.515625 27.832031 27.652344 28.003906 27.792969 28.171875 C 27.839844 28.230469 27.886719 28.285156 27.933594 28.34375 C 28.039062 28.472656 28.144531 28.597656 28.253906 28.722656 C 28.375 28.875 28.375 28.875 28.375 29 C 28.410156 29 28.445312 29.003906 28.484375 29.003906 C 28.671875 29.082031 28.714844 29.203125 28.808594 29.378906 C 28.875 29.503906 28.953125 29.601562 29.046875 29.707031 C 29.1875 29.875 29.1875 29.875 29.1875 30 C 29.25 30.019531 29.3125 30.042969 29.375 30.0625 C 29.449219 30.148438 29.449219 30.148438 29.53125 30.265625 C 29.699219 30.5 29.878906 30.71875 30.066406 30.9375 C 30.4375 31.371094 30.796875 31.816406 31.15625 32.257812 C 31.335938 32.480469 31.515625 32.699219 31.695312 32.917969 C 31.734375 32.964844 31.773438 33.011719 31.8125 33.0625 C 31.882812 33.144531 31.882812 33.144531 31.953125 33.230469 C 32.0625 33.375 32.0625 33.375 32.0625 33.5 C 32.101562 33.515625 32.140625 33.53125 32.183594 33.546875 C 32.3125 33.625 32.3125 33.625 32.351562 33.753906 C 32.359375 33.792969 32.367188 33.835938 32.375 33.875 C 31.824219 33.878906 31.269531 33.882812 30.71875 33.882812 C 30.460938 33.886719 30.203125 33.886719 29.949219 33.890625 C 29.699219 33.890625 29.453125 33.890625 29.203125 33.894531 C 29.109375 33.894531 29.015625 33.894531 28.921875 33.894531 C 28.417969 33.898438 27.964844 33.898438 27.5 33.6875 C 27.433594 33.660156 27.371094 33.632812 27.304688 33.605469 C 26.65625 33.289062 26.175781 32.910156 25.742188 32.339844 C 25.632812 32.199219 25.523438 32.070312 25.40625 31.9375 C 25.25 31.761719 25.101562 31.582031 24.957031 31.398438 C 24.71875 31.097656 24.46875 30.804688 24.21875 30.515625 C 24.023438 30.289062 23.832031 30.058594 23.644531 29.828125 C 23.378906 29.5 23.097656 29.1875 22.8125 28.875 C 22.523438 28.554688 22.253906 28.222656 22 27.875 C 21.949219 27.808594 21.949219 27.808594 21.894531 27.742188 C 21.8125 27.625 21.8125 27.625 21.8125 27.5 C 21.753906 27.480469 21.753906 27.480469 21.695312 27.457031 C 21.523438 27.351562 21.511719 27.246094 21.4375 27.0625 C 21.378906 27.035156 21.378906 27.035156 21.320312 27.007812 C 21.15625 26.921875 21.082031 26.820312 20.96875 26.667969 C 20.929688 26.617188 20.894531 26.566406 20.855469 26.515625 C 20.820312 26.46875 20.785156 26.421875 20.75 26.375 C 20.578125 26.15625 20.578125 26.15625 20.390625 25.957031 C 20.3125 25.875 20.3125 25.875 20.3125 25.75 C 20.25 25.730469 20.1875 25.707031 20.125 25.6875 C 20.011719 25.5625 20.011719 25.5625 19.894531 25.410156 C 19.855469 25.359375 19.816406 25.308594 19.777344 25.257812 C 19.6875 25.125 19.6875 25.125 19.6875 25 C 19.625 24.980469 19.5625 24.957031 19.5 24.9375 C 19.386719 24.808594 19.386719 24.808594 19.269531 24.652344 C 19.230469 24.601562 19.191406 24.550781 19.152344 24.496094 C 19.121094 24.457031 19.09375 24.417969 19.0625 24.375 C 19.0625 24.445312 19.0625 24.445312 19.0625 24.515625 C 19.058594 25.652344 19.054688 26.789062 19.046875 27.929688 C 19.046875 28.476562 19.042969 29.027344 19.039062 29.578125 C 19.039062 30.058594 19.039062 30.535156 19.035156 31.015625 C 19.03125 31.269531 19.03125 31.523438 19.03125 31.777344 C 19.03125 32.015625 19.03125 32.253906 19.027344 32.492188 C 19.027344 32.582031 19.027344 32.667969 19.027344 32.757812 C 19.027344 32.875 19.027344 32.996094 19.023438 33.117188 C 19.023438 33.183594 19.023438 33.25 19.023438 33.320312 C 18.996094 33.527344 18.9375 33.644531 18.8125 33.8125 C 18.628906 33.90625 18.441406 33.882812 18.238281 33.882812 C 18.191406 33.882812 18.144531 33.882812 18.097656 33.882812 C 17.9375 33.882812 17.78125 33.882812 17.625 33.882812 C 17.511719 33.882812 17.398438 33.882812 17.285156 33.882812 C 16.980469 33.882812 16.671875 33.882812 16.367188 33.882812 C 16.046875 33.882812 15.726562 33.882812 15.40625 33.878906 C 14.796875 33.878906 14.191406 33.878906 13.585938 33.878906 C 12.894531 33.878906 12.203125 33.878906 11.511719 33.878906 C 10.089844 33.878906 8.671875 33.875 7.25 33.875 C 7.277344 33.84375 7.300781 33.816406 7.328125 33.785156 C 7.363281 33.746094 7.394531 33.707031 7.429688 33.664062 C 7.464844 33.625 7.496094 33.585938 7.53125 33.546875 C 8.238281 32.710938 8.332031 31.824219 8.328125 30.761719 C 8.328125 30.664062 8.328125 30.5625 8.332031 30.464844 C 8.332031 30.191406 8.332031 29.921875 8.332031 29.648438 C 8.332031 29.355469 8.332031 29.058594 8.332031 28.765625 C 8.335938 28.253906 8.335938 27.746094 8.335938 27.238281 C 8.335938 26.5 8.335938 25.765625 8.339844 25.027344 C 8.339844 23.832031 8.34375 22.636719 8.34375 21.4375 C 8.34375 21.332031 8.34375 21.332031 8.34375 21.222656 C 8.34375 21.117188 8.34375 21.117188 8.347656 21.003906 C 8.347656 19.988281 8.347656 18.972656 8.351562 17.957031 C 8.351562 17.886719 8.351562 17.8125 8.351562 17.742188 C 8.351562 16.546875 8.355469 15.355469 8.355469 14.164062 C 8.359375 13.429688 8.359375 12.695312 8.359375 11.960938 C 8.363281 11.457031 8.363281 10.953125 8.363281 10.449219 C 8.363281 10.160156 8.363281 9.867188 8.363281 9.578125 C 8.363281 9.3125 8.363281 9.046875 8.367188 8.78125 C 8.367188 8.683594 8.367188 8.589844 8.367188 8.492188 C 8.367188 8.359375 8.367188 8.230469 8.367188 8.101562 C 8.367188 7.992188 8.367188 7.992188 8.367188 7.878906 C 8.375 7.703125 8.398438 7.546875 8.4375 7.375 C 8.480469 7.375 8.519531 7.375 8.5625 7.375 C 8.578125 7.320312 8.597656 7.265625 8.613281 7.207031 C 8.683594 7.011719 8.757812 6.855469 8.875 6.6875 C 8.917969 6.6875 8.957031 6.6875 9 6.6875 C 9.019531 6.625 9.042969 6.5625 9.0625 6.5 C 9.242188 6.410156 9.359375 6.375 9.5625 6.375 C 9.5625 6.332031 9.5625 6.292969 9.5625 6.25 C 9.816406 6.203125 10.054688 6.179688 10.308594 6.179688 Z M 10.308594 6.179688 "/>
<path style=" stroke:none;fill-rule:nonzero;fill:rgb(99.215686%,99.215686%,98.823529%);fill-opacity:1;" d="M 12.875 20.1875 C 13.308594 20.179688 13.742188 20.167969 14.191406 20.160156 C 14.328125 20.15625 14.464844 20.152344 14.605469 20.148438 C 14.714844 20.148438 14.824219 20.144531 14.933594 20.144531 C 14.988281 20.140625 15.042969 20.140625 15.101562 20.136719 C 15.417969 20.136719 15.582031 20.171875 15.8125 20.402344 C 15.878906 20.472656 15.9375 20.550781 16 20.625 C 16.058594 20.6875 16.058594 20.6875 16.117188 20.75 C 16.574219 21.28125 17.035156 21.816406 17.464844 22.375 C 17.621094 22.566406 17.621094 22.566406 17.816406 22.722656 C 18.222656 23.082031 18.398438 23.453125 18.4375 23.996094 C 18.460938 24.546875 18.445312 25.101562 18.425781 25.652344 C 18.417969 25.960938 18.414062 26.273438 18.410156 26.585938 C 18.402344 27.058594 18.386719 27.527344 18.375 28 C 17.488281 28.019531 16.601562 28.042969 15.6875 28.0625 C 15.554688 28.324219 15.527344 28.527344 15.5625 28.8125 C 15.605469 28.914062 15.644531 29.019531 15.6875 29.125 C 16.574219 29.125 17.460938 29.125 18.375 29.125 C 18.375 30.484375 18.375 31.847656 18.375 33.25 C 17.203125 33.265625 17.203125 33.265625 16.703125 33.269531 C 16.363281 33.273438 16.023438 33.277344 15.683594 33.28125 C 15.40625 33.289062 15.132812 33.289062 14.859375 33.292969 C 14.753906 33.292969 14.648438 33.292969 14.542969 33.296875 C 13.722656 33.3125 13.722656 33.3125 13.480469 33.15625 C 13.386719 33.046875 13.320312 32.9375 13.25 32.8125 C 13.21875 32.789062 13.1875 32.761719 13.15625 32.734375 C 13.0625 32.625 13.0625 32.625 12.9375 32.125 C 13.949219 32.105469 14.957031 32.082031 16 32.0625 C 16.113281 31.78125 16.148438 31.664062 16.125 31.375 C 16.0625 31.25 16.0625 31.25 16 31.125 C 14.453125 31.09375 14.453125 31.09375 12.875 31.0625 C 12.875 29.269531 12.875 27.472656 12.875 25.625 C 13.742188 25.605469 14.609375 25.582031 15.5 25.5625 C 15.582031 25.480469 15.664062 25.398438 15.75 25.3125 C 15.792969 25.3125 15.832031 25.3125 15.875 25.3125 C 15.867188 25.195312 15.867188 25.195312 15.855469 25.078125 C 15.851562 25.035156 15.847656 24.992188 15.84375 24.945312 C 15.800781 24.761719 15.765625 24.691406 15.625 24.5625 C 15.417969 24.523438 15.214844 24.523438 15.003906 24.523438 C 14.953125 24.523438 14.898438 24.523438 14.84375 24.519531 C 14.640625 24.519531 14.441406 24.515625 14.238281 24.515625 C 13.789062 24.511719 13.339844 24.503906 12.875 24.5 C 12.875 23.078125 12.875 21.652344 12.875 20.1875 Z M 12.875 20.1875 "/>
<path style=" stroke:none;fill-rule:nonzero;fill:rgb(98.823529%,98.823529%,98.431373%);fill-opacity:1;" d="M 14.601562 6.765625 C 14.710938 6.765625 14.820312 6.765625 14.929688 6.765625 C 15.214844 6.769531 15.5 6.773438 15.785156 6.777344 C 16.078125 6.785156 16.367188 6.785156 16.660156 6.789062 C 17.230469 6.792969 17.804688 6.800781 18.375 6.8125 C 18.375 7 18.375 7.183594 18.375 7.375 C 18.335938 7.375 18.292969 7.375 18.25 7.378906 C 18.066406 7.382812 17.882812 7.386719 17.699219 7.394531 C 17.601562 7.398438 17.601562 7.398438 17.503906 7.398438 C 17.445312 7.402344 17.382812 7.402344 17.320312 7.40625 C 17.261719 7.40625 17.207031 7.410156 17.148438 7.410156 C 16.972656 7.441406 16.925781 7.496094 16.8125 7.625 C 16.769531 7.625 16.730469 7.625 16.6875 7.625 C 16.679688 7.722656 16.671875 7.820312 16.667969 7.917969 C 16.664062 8 16.664062 8 16.65625 8.082031 C 16.679688 8.300781 16.679688 8.300781 17 8.5625 C 17.472656 8.582031 17.949219 8.605469 18.4375 8.625 C 18.4375 10.046875 18.4375 11.472656 18.4375 12.9375 C 17.417969 12.96875 17.417969 12.96875 16.375 13 C 16.242188 13.199219 16.234375 13.261719 16.234375 13.492188 C 16.234375 13.542969 16.234375 13.597656 16.234375 13.652344 C 16.246094 13.84375 16.246094 13.84375 16.375 14.125 C 17.363281 14.15625 17.363281 14.15625 18.375 14.1875 C 18.394531 14.535156 18.410156 14.882812 18.417969 15.234375 C 18.421875 15.351562 18.429688 15.472656 18.4375 15.589844 C 18.5 16.675781 18.5 16.675781 18.09375 17.140625 C 17.953125 17.28125 17.808594 17.410156 17.65625 17.539062 C 17.527344 17.65625 17.429688 17.789062 17.332031 17.929688 C 17.261719 18.027344 17.261719 18.027344 17.1875 18.125 C 17.144531 18.125 17.105469 18.125 17.0625 18.125 C 17.046875 18.160156 17.03125 18.195312 17.015625 18.234375 C 16.929688 18.386719 16.835938 18.507812 16.71875 18.640625 C 16.679688 18.683594 16.644531 18.730469 16.601562 18.773438 C 16.5 18.875 16.5 18.875 16.375 18.875 C 16.359375 18.910156 16.339844 18.949219 16.324219 18.984375 C 16.226562 19.167969 16.097656 19.304688 15.957031 19.457031 C 15.863281 19.566406 15.863281 19.566406 15.8125 19.75 C 14.84375 19.75 13.875 19.75 12.875 19.75 C 12.875 18.964844 12.875 18.183594 12.875 17.375 C 14.050781 17.375 15.226562 17.375 16.4375 17.375 C 16.523438 17.003906 16.523438 17.003906 16.5 16.375 C 15.304688 16.355469 14.109375 16.332031 12.875 16.3125 C 12.875 14.785156 12.875 13.261719 12.875 11.6875 C 13.957031 11.65625 13.957031 11.65625 15.0625 11.625 C 15.257812 11.464844 15.257812 11.464844 15.273438 11.304688 C 15.273438 11.234375 15.273438 11.234375 15.273438 11.160156 C 15.273438 11.113281 15.273438 11.066406 15.273438 11.015625 C 15.242188 10.828125 15.199219 10.757812 15.0625 10.625 C 14.890625 10.597656 14.738281 10.585938 14.566406 10.585938 C 14.515625 10.585938 14.46875 10.585938 14.417969 10.582031 C 14.265625 10.582031 14.109375 10.578125 13.957031 10.578125 C 13.851562 10.578125 13.746094 10.574219 13.644531 10.574219 C 13.386719 10.566406 13.132812 10.566406 12.875 10.5625 C 12.867188 10.191406 12.863281 9.816406 12.859375 9.445312 C 12.859375 9.320312 12.859375 9.191406 12.855469 9.066406 C 12.851562 8.882812 12.851562 8.699219 12.851562 8.519531 C 12.847656 8.460938 12.847656 8.40625 12.847656 8.347656 C 12.847656 7.949219 12.929688 7.660156 13.125 7.3125 C 13.144531 7.265625 13.164062 7.21875 13.1875 7.167969 C 13.46875 6.632812 14.078125 6.75 14.601562 6.765625 Z M 14.601562 6.765625 "/>
<path style=" stroke:none;fill-rule:nonzero;fill:rgb(94.117647%,67.450982%,31.764707%);fill-opacity:1;" d="M 8.4375 7.1875 C 8.507812 7.402344 8.484375 7.472656 8.4375 7.6875 C 8.433594 7.824219 8.429688 7.964844 8.429688 8.101562 C 8.429688 8.164062 8.429688 8.164062 8.429688 8.226562 C 8.429688 8.363281 8.425781 8.5 8.425781 8.636719 C 8.425781 8.738281 8.425781 8.835938 8.425781 8.9375 C 8.425781 9.210938 8.425781 9.484375 8.425781 9.757812 C 8.425781 10.054688 8.421875 10.347656 8.421875 10.644531 C 8.421875 11.15625 8.421875 11.664062 8.417969 12.175781 C 8.417969 12.914062 8.417969 13.65625 8.414062 14.394531 C 8.410156 15.59375 8.410156 16.792969 8.40625 17.992188 C 8.402344 19.15625 8.402344 20.320312 8.398438 21.488281 C 8.398438 21.558594 8.398438 21.628906 8.398438 21.703125 C 8.398438 22.0625 8.394531 22.425781 8.394531 22.785156 C 8.386719 25.773438 8.382812 28.761719 8.375 31.75 C 8.355469 31.75 8.332031 31.75 8.3125 31.75 C 8.292969 23.6875 8.269531 15.621094 8.25 7.3125 C 8.292969 7.3125 8.332031 7.3125 8.375 7.3125 C 8.394531 7.269531 8.417969 7.230469 8.4375 7.1875 Z M 8.4375 7.1875 "/>
<path style=" stroke:none;fill-rule:nonzero;fill:rgb(20%,11.372549%,3.529412%);fill-opacity:1;" d="M 7.625 33.4375 C 7.625 33.5 7.625 33.5625 7.625 33.625 C 7.605469 33.644531 7.582031 33.667969 7.5625 33.6875 C 11.234375 33.707031 14.90625 33.730469 18.6875 33.75 C 18.6875 33.792969 18.6875 33.832031 18.6875 33.875 C 14.914062 33.875 11.140625 33.875 7.25 33.875 C 7.375 33.730469 7.496094 33.585938 7.625 33.4375 Z M 7.625 33.4375 "/>
<path style=" stroke:none;fill-rule:nonzero;fill:rgb(34.509805%,33.725491%,33.725491%);fill-opacity:1;" d="M 18.375 23.5 C 18.394531 23.5 18.417969 23.5 18.4375 23.5 C 18.4375 25.003906 18.4375 26.511719 18.4375 28.0625 C 17.550781 28.082031 16.664062 28.105469 15.75 28.125 C 15.832031 28.144531 15.914062 28.167969 16 28.1875 C 15.980469 28.25 15.957031 28.3125 15.9375 28.375 C 15.875 28.355469 15.8125 28.332031 15.75 28.3125 C 15.730469 28.375 15.707031 28.4375 15.6875 28.5 C 15.644531 28.5 15.605469 28.5 15.5625 28.5 C 15.5625 28.601562 15.5625 28.707031 15.5625 28.8125 C 15.542969 28.8125 15.519531 28.8125 15.5 28.8125 C 15.472656 28.246094 15.472656 28.246094 15.6875 28 C 15.890625 27.953125 16.089844 27.964844 16.292969 27.96875 C 16.347656 27.96875 16.398438 27.96875 16.453125 27.96875 C 16.648438 27.972656 16.847656 27.976562 17.042969 27.980469 C 17.484375 27.988281 17.921875 27.992188 18.375 28 C 18.375 26.515625 18.375 25.03125 18.375 23.5 Z M 15.8125 28.375 C 15.855469 28.375 15.894531 28.375 15.9375 28.375 C 15.917969 28.4375 15.894531 28.5 15.875 28.5625 C 15.855469 28.5 15.832031 28.4375 15.8125 28.375 Z M 15.8125 28.375 "/>
<path style=" stroke:none;fill-rule:nonzero;fill:rgb(31.764707%,29.019609%,25.490198%);fill-opacity:1;" d="M 12.8125 20.1875 C 12.832031 20.1875 12.855469 20.1875 12.875 20.1875 C 12.875 21.609375 12.875 23.035156 12.875 24.5 C 13.769531 24.488281 13.769531 24.488281 14.664062 24.472656 C 14.773438 24.472656 14.886719 24.46875 15 24.46875 C 15.085938 24.46875 15.085938 24.46875 15.175781 24.464844 C 15.585938 24.464844 15.585938 24.464844 15.789062 24.648438 C 15.917969 24.890625 15.894531 25.042969 15.875 25.3125 C 15.832031 25.3125 15.792969 25.3125 15.75 25.3125 C 15.558594 24.972656 15.558594 24.972656 15.582031 24.789062 C 15.597656 24.753906 15.609375 24.722656 15.625 24.6875 C 15.480469 24.617188 15.398438 24.617188 15.238281 24.613281 C 15.183594 24.609375 15.128906 24.609375 15.074219 24.609375 C 15.015625 24.605469 14.960938 24.605469 14.898438 24.605469 C 14.847656 24.605469 14.792969 24.601562 14.738281 24.601562 C 14.542969 24.597656 14.34375 24.59375 14.148438 24.589844 C 13.707031 24.582031 13.265625 24.570312 12.8125 24.5625 C 12.8125 23.117188 12.8125 21.675781 12.8125 20.1875 Z M 12.8125 20.1875 "/>
<path style=" stroke:none;fill-rule:nonzero;fill:rgb(20.784314%,12.54902%,6.27451%);fill-opacity:1;" d="M 21.875 12.8125 C 21.957031 12.8125 22.039062 12.8125 22.125 12.8125 C 22.03125 13.078125 21.855469 13.164062 21.625 13.3125 C 21.605469 13.355469 21.582031 13.394531 21.5625 13.4375 C 21.519531 13.4375 21.480469 13.4375 21.4375 13.4375 C 21.417969 13.519531 21.394531 13.601562 21.375 13.6875 C 21.417969 13.6875 21.457031 13.6875 21.5 13.6875 C 21.5 13.769531 21.5 13.851562 21.5 13.9375 C 21.398438 13.917969 21.292969 13.894531 21.1875 13.875 C 21.144531 13.9375 21.105469 14 21.0625 14.0625 C 21.019531 14.0625 20.980469 14.0625 20.9375 14.0625 C 20.894531 14.144531 20.855469 14.226562 20.8125 14.3125 C 20.75 14.3125 20.6875 14.3125 20.625 14.3125 C 20.726562 14.0625 20.902344 13.882812 21.085938 13.691406 C 21.144531 13.628906 21.207031 13.5625 21.265625 13.5 C 21.296875 13.46875 21.324219 13.4375 21.355469 13.40625 C 21.433594 13.316406 21.503906 13.226562 21.578125 13.132812 C 21.632812 13.066406 21.632812 13.066406 21.6875 13 C 21.730469 13 21.769531 13 21.8125 13 C 21.832031 12.9375 21.855469 12.875 21.875 12.8125 Z M 21.875 12.8125 "/>
<path style=" stroke:none;fill-rule:nonzero;fill:rgb(92.156863%,68.627453%,34.117648%);fill-opacity:1;" d="M 27.5 33.6875 C 27.609375 33.71875 27.609375 33.71875 27.71875 33.75 C 28.160156 33.847656 28.609375 33.835938 29.0625 33.839844 C 29.15625 33.839844 29.253906 33.839844 29.347656 33.84375 C 29.597656 33.84375 29.851562 33.847656 30.101562 33.851562 C 30.355469 33.851562 30.613281 33.855469 30.871094 33.859375 C 31.371094 33.863281 31.875 33.871094 32.375 33.875 C 32.375 33.894531 32.375 33.917969 32.375 33.9375 C 31.777344 33.9375 31.175781 33.941406 30.578125 33.941406 C 30.300781 33.941406 30.023438 33.941406 29.746094 33.941406 C 29.476562 33.941406 29.207031 33.941406 28.941406 33.945312 C 28.835938 33.945312 28.734375 33.945312 28.632812 33.945312 C 28.488281 33.945312 28.347656 33.945312 28.203125 33.945312 C 28.082031 33.945312 28.082031 33.945312 27.957031 33.945312 C 27.789062 33.9375 27.65625 33.925781 27.5 33.875 C 27.5 33.8125 27.5 33.75 27.5 33.6875 Z M 27.5 33.6875 "/>
<path style=" stroke:none;fill-rule:nonzero;fill:rgb(15.294118%,10.196079%,3.529412%);fill-opacity:1;" d="M 26.1875 14.0625 C 26.25 14.082031 26.3125 14.105469 26.375 14.125 C 26.316406 14.191406 26.316406 14.191406 26.253906 14.257812 C 25.96875 14.570312 25.683594 14.886719 25.40625 15.210938 C 25.316406 15.308594 25.222656 15.40625 25.125 15.5 C 25.125 15.417969 25.125 15.335938 25.125 15.25 C 25.167969 15.25 25.207031 15.25 25.25 15.25 C 25.292969 15.167969 25.332031 15.085938 25.375 15 C 25.417969 15 25.457031 15 25.5 15 C 25.507812 14.949219 25.507812 14.949219 25.519531 14.898438 C 25.574219 14.710938 25.660156 14.546875 25.75 14.375 C 25.832031 14.394531 25.914062 14.417969 26 14.4375 C 26.019531 14.355469 26.042969 14.273438 26.0625 14.1875 C 26.105469 14.1875 26.144531 14.1875 26.1875 14.1875 C 26.1875 14.144531 26.1875 14.105469 26.1875 14.0625 Z M 26.1875 14.0625 "/>
<path style=" stroke:none;fill-rule:nonzero;fill:rgb(85.490197%,60.784316%,23.921569%);fill-opacity:1;" d="M 33.25 6.3125 C 33.269531 6.355469 33.292969 6.394531 33.3125 6.4375 C 33.25 6.625 33.25 6.625 33.125 6.6875 C 33.167969 6.707031 33.207031 6.730469 33.25 6.75 C 33.25 6.792969 33.25 6.832031 33.25 6.875 C 33.210938 6.882812 33.175781 6.890625 33.136719 6.898438 C 32.984375 6.933594 32.984375 6.933594 32.8125 7.0625 C 32.765625 7.222656 32.765625 7.222656 32.75 7.375 C 32.605469 7.394531 32.460938 7.417969 32.3125 7.4375 C 32.597656 7.035156 32.917969 6.671875 33.25 6.3125 Z M 33.25 6.3125 "/>
<path style=" stroke:none;fill-rule:nonzero;fill:rgb(29.803923%,19.215687%,6.666667%);fill-opacity:1;" d="M 28 6.375 C 28.042969 6.394531 28.082031 6.417969 28.125 6.4375 C 27.898438 6.625 27.898438 6.625 27.6875 6.625 C 27.667969 6.6875 27.644531 6.75 27.625 6.8125 C 27.523438 6.832031 27.417969 6.855469 27.3125 6.875 C 27.3125 6.9375 27.3125 7 27.3125 7.0625 C 27.195312 7.199219 27.195312 7.199219 27.0625 7.3125 C 27.019531 7.3125 26.980469 7.3125 26.9375 7.3125 C 26.9375 7.355469 26.9375 7.394531 26.9375 7.4375 C 26.855469 7.457031 26.773438 7.480469 26.6875 7.5 C 26.90625 7.015625 27.363281 6.699219 27.8125 6.4375 C 27.875 6.417969 27.9375 6.394531 28 6.375 Z M 28 6.375 "/>
<path style=" stroke:none;fill-rule:nonzero;fill:rgb(80.392158%,56.862748%,23.137255%);fill-opacity:1;" d="M 24.75 15.875 C 24.769531 15.957031 24.792969 16.039062 24.8125 16.125 C 24.75 16.125 24.6875 16.125 24.625 16.125 C 24.621094 16.171875 24.617188 16.21875 24.613281 16.269531 C 24.546875 16.492188 24.445312 16.511719 24.25 16.625 C 24.195312 16.753906 24.195312 16.753906 24.1875 16.875 C 24.144531 16.875 24.105469 16.875 24.0625 16.875 C 24.042969 16.9375 24.019531 17 24 17.0625 C 23.898438 17.082031 23.792969 17.105469 23.6875 17.125 C 23.738281 17.050781 23.785156 16.980469 23.835938 16.90625 C 23.863281 16.867188 23.890625 16.824219 23.917969 16.78125 C 23.960938 16.734375 23.960938 16.734375 24 16.6875 C 24.042969 16.6875 24.082031 16.6875 24.125 16.6875 C 24.144531 16.625 24.167969 16.5625 24.1875 16.5 C 24.230469 16.5 24.269531 16.5 24.3125 16.5 C 24.328125 16.464844 24.339844 16.433594 24.355469 16.398438 C 24.464844 16.199219 24.601562 16.046875 24.75 15.875 Z M 24.75 15.875 "/>
<path style=" stroke:none;fill-rule:nonzero;fill:rgb(10.196079%,7.843138%,5.490196%);fill-opacity:1;" d="M 33 6.25 C 33.082031 6.25 33.164062 6.25 33.25 6.25 C 33.15625 6.46875 33.027344 6.621094 32.867188 6.796875 C 32.800781 6.871094 32.800781 6.871094 32.730469 6.949219 C 32.695312 6.984375 32.660156 7.023438 32.625 7.0625 C 32.585938 6.945312 32.585938 6.945312 32.5625 6.8125 C 32.605469 6.769531 32.644531 6.730469 32.6875 6.6875 C 32.730469 6.707031 32.769531 6.730469 32.8125 6.75 C 32.75 6.667969 32.6875 6.585938 32.625 6.5 C 32.644531 6.457031 32.667969 6.417969 32.6875 6.375 C 32.847656 6.335938 32.847656 6.335938 33 6.3125 C 33 6.292969 33 6.269531 33 6.25 Z M 33 6.25 "/>
<path style=" stroke:none;fill-rule:nonzero;fill:rgb(27.058825%,17.254902%,7.058824%);fill-opacity:1;" d="M 24.5625 9.8125 C 24.582031 9.875 24.605469 9.9375 24.625 10 C 24.457031 10.304688 24.199219 10.585938 23.9375 10.8125 C 23.875 10.8125 23.8125 10.8125 23.75 10.8125 C 23.855469 10.554688 24.039062 10.371094 24.226562 10.171875 C 24.257812 10.136719 24.289062 10.101562 24.324219 10.066406 C 24.402344 9.980469 24.484375 9.898438 24.5625 9.8125 Z M 24.5625 9.8125 "/>
<path style=" stroke:none;fill-rule:nonzero;fill:rgb(19.215687%,11.764706%,3.529412%);fill-opacity:1;" d="M 24.125 23.8125 C 24.433594 24.109375 24.714844 24.429688 25 24.75 C 24.875 24.8125 24.875 24.8125 24.679688 24.753906 C 24.589844 24.722656 24.589844 24.722656 24.5 24.6875 C 24.5 24.605469 24.5 24.523438 24.5 24.4375 C 24.457031 24.4375 24.417969 24.4375 24.375 24.4375 C 24.332031 24.355469 24.292969 24.277344 24.25 24.195312 C 24.226562 24.148438 24.203125 24.105469 24.179688 24.058594 C 24.125 23.9375 24.125 23.9375 24.125 23.8125 Z M 24.125 23.8125 "/>
<path style=" stroke:none;fill-rule:nonzero;fill:rgb(89.803922%,63.921571%,24.705882%);fill-opacity:1;" d="M 21.007812 13.714844 C 21.066406 13.730469 21.066406 13.730469 21.125 13.75 C 21.097656 13.777344 21.070312 13.804688 21.039062 13.832031 C 20.855469 14.015625 20.671875 14.199219 20.507812 14.402344 C 20.464844 14.457031 20.421875 14.507812 20.375 14.5625 C 20.355469 14.5625 20.332031 14.5625 20.3125 14.5625 C 20.289062 14.28125 20.289062 14.28125 20.394531 14.136719 C 20.5 14.0625 20.5 14.0625 20.6875 14.0625 C 20.667969 14 20.644531 13.9375 20.625 13.875 C 20.84375 13.679688 20.84375 13.679688 21.007812 13.714844 Z M 21.007812 13.714844 "/>
<path style=" stroke:none;fill-rule:nonzero;fill:rgb(14.509805%,7.058824%,3.137255%);fill-opacity:1;" d="M 21.625 27.25 C 21.6875 27.25 21.75 27.25 21.8125 27.25 C 21.847656 27.316406 21.882812 27.386719 21.921875 27.457031 C 22.027344 27.644531 22.132812 27.753906 22.3125 27.875 C 22.3125 27.917969 22.3125 27.957031 22.3125 28 C 22.402344 28.101562 22.402344 28.101562 22.5 28.1875 C 22.480469 28.230469 22.457031 28.269531 22.4375 28.3125 C 22.355469 28.234375 22.277344 28.160156 22.195312 28.082031 C 22.128906 28.019531 22.128906 28.019531 22.058594 27.953125 C 21.9375 27.8125 21.9375 27.8125 21.871094 27.644531 C 21.851562 27.597656 21.832031 27.546875 21.8125 27.5 C 21.75 27.480469 21.6875 27.457031 21.625 27.4375 C 21.625 27.375 21.625 27.3125 21.625 27.25 Z M 21.625 27.25 "/>
<path style=" stroke:none;fill-rule:nonzero;fill:rgb(83.529413%,59.215689%,23.529412%);fill-opacity:1;" d="M 28.875 11.25 C 28.875 11.441406 28.855469 11.503906 28.761719 11.664062 C 28.730469 11.722656 28.730469 11.722656 28.699219 11.78125 C 28.625 11.875 28.625 11.875 28.4375 11.9375 C 28.363281 12.0625 28.363281 12.0625 28.3125 12.1875 C 28.25 12.144531 28.1875 12.105469 28.125 12.0625 C 28.152344 12.035156 28.179688 12.007812 28.210938 11.980469 C 28.445312 11.746094 28.667969 11.507812 28.875 11.25 Z M 28.875 11.25 "/>
<path style=" stroke:none;fill-rule:nonzero;fill:rgb(82.745099%,59.215689%,24.313726%);fill-opacity:1;" d="M 32.0625 7.625 C 32.082031 7.6875 32.105469 7.75 32.125 7.8125 C 32.039062 7.972656 32.039062 7.972656 31.9375 8.125 C 31.917969 8.167969 31.894531 8.207031 31.875 8.25 C 31.792969 8.25 31.710938 8.25 31.625 8.25 C 31.617188 8.289062 31.609375 8.328125 31.601562 8.367188 C 31.5625 8.5 31.5625 8.5 31.4375 8.625 C 31.375 8.605469 31.3125 8.582031 31.25 8.5625 C 31.289062 8.519531 31.324219 8.480469 31.363281 8.4375 C 31.414062 8.382812 31.464844 8.328125 31.515625 8.269531 C 31.566406 8.214844 31.613281 8.160156 31.664062 8.105469 C 31.804688 7.949219 31.933594 7.789062 32.0625 7.625 Z M 32.0625 7.625 "/>
<path style=" stroke:none;fill-rule:nonzero;fill:rgb(20.784314%,14.117648%,4.705882%);fill-opacity:1;" d="M 27.0625 27.5 C 27.238281 27.523438 27.304688 27.554688 27.429688 27.683594 C 27.464844 27.730469 27.5 27.78125 27.539062 27.832031 C 27.574219 27.878906 27.613281 27.929688 27.652344 27.980469 C 27.738281 28.109375 27.808594 28.234375 27.875 28.375 C 27.832031 28.375 27.792969 28.375 27.75 28.375 C 27.75 28.332031 27.75 28.292969 27.75 28.25 C 27.667969 28.269531 27.585938 28.292969 27.5 28.3125 C 27.496094 28.265625 27.492188 28.222656 27.488281 28.175781 C 27.421875 27.945312 27.296875 27.847656 27.125 27.6875 C 27.105469 27.625 27.082031 27.5625 27.0625 27.5 Z M 27.0625 27.5 "/>
<path style=" stroke:none;fill-rule:nonzero;fill:rgb(14.901961%,12.941177%,13.333334%);fill-opacity:1;" d="M 16.6875 7.625 C 16.75 7.625 16.8125 7.625 16.875 7.625 C 16.953125 7.859375 16.898438 7.960938 16.8125 8.1875 C 16.855469 8.1875 16.894531 8.1875 16.9375 8.1875 C 16.917969 8.289062 16.894531 8.394531 16.875 8.5 C 16.746094 8.414062 16.746094 8.414062 16.625 8.25 C 16.621094 8.039062 16.652344 7.835938 16.6875 7.625 Z M 16.6875 7.625 "/>
<path style=" stroke:none;fill-rule:nonzero;fill:rgb(26.666668%,18.039216%,7.843138%);fill-opacity:1;" d="M 28.4375 29 C 28.699219 29.085938 28.753906 29.269531 28.875 29.5 C 28.9375 29.605469 29 29.707031 29.0625 29.8125 C 29 29.84375 29 29.84375 28.9375 29.875 C 28.9375 29.832031 28.9375 29.792969 28.9375 29.75 C 28.746094 29.6875 28.746094 29.6875 28.5625 29.75 C 28.542969 29.648438 28.519531 29.542969 28.5 29.4375 C 28.5625 29.4375 28.625 29.4375 28.6875 29.4375 C 28.625 29.363281 28.625 29.363281 28.5625 29.289062 C 28.4375 29.125 28.4375 29.125 28.4375 29 Z M 28.4375 29 "/>
<path style=" stroke:none;fill-rule:nonzero;fill:rgb(12.54902%,10.588235%,5.490196%);fill-opacity:1;" d="M 24.4375 15.8125 C 24.5 15.894531 24.5625 15.976562 24.625 16.0625 C 24.3125 16.53125 24.3125 16.53125 24.0625 16.6875 C 24.0625 16.644531 24.0625 16.605469 24.0625 16.5625 C 24.019531 16.542969 23.980469 16.519531 23.9375 16.5 C 24 16.480469 24.0625 16.457031 24.125 16.4375 C 24.125 16.375 24.125 16.3125 24.125 16.25 C 24.1875 16.230469 24.25 16.207031 24.3125 16.1875 C 24.390625 16 24.390625 16 24.4375 15.8125 Z M 24.4375 15.8125 "/>
<path style=" stroke:none;fill-rule:nonzero;fill:rgb(21.960784%,14.509805%,6.27451%);fill-opacity:1;" d="M 21.875 12.8125 C 21.957031 12.8125 22.039062 12.8125 22.125 12.8125 C 22.03125 13.078125 21.855469 13.167969 21.625 13.3125 C 21.511719 13.414062 21.511719 13.414062 21.4375 13.5 C 21.394531 13.480469 21.355469 13.457031 21.3125 13.4375 C 21.371094 13.363281 21.433594 13.292969 21.492188 13.21875 C 21.542969 13.15625 21.542969 13.15625 21.59375 13.09375 C 21.625 13.0625 21.65625 13.03125 21.6875 13 C 21.730469 13 21.769531 13 21.8125 13 C 21.832031 12.9375 21.855469 12.875 21.875 12.8125 Z M 21.875 12.8125 "/>
<path style=" stroke:none;fill-rule:nonzero;fill:rgb(21.960784%,14.117648%,6.27451%);fill-opacity:1;" d="M 25.9375 8.25 C 26.035156 8.441406 25.972656 8.605469 25.9375 8.8125 C 25.894531 8.792969 25.855469 8.769531 25.8125 8.75 C 25.777344 8.78125 25.742188 8.808594 25.703125 8.839844 C 25.566406 8.933594 25.472656 8.964844 25.3125 9 C 25.371094 8.917969 25.433594 8.832031 25.492188 8.75 C 25.527344 8.703125 25.558594 8.65625 25.59375 8.609375 C 25.625 8.574219 25.65625 8.539062 25.6875 8.5 C 25.730469 8.5 25.769531 8.5 25.8125 8.5 C 25.855469 8.417969 25.894531 8.335938 25.9375 8.25 Z M 25.9375 8.25 "/>
<path style=" stroke:none;fill-rule:nonzero;fill:rgb(15.686275%,9.019608%,3.137255%);fill-opacity:1;" d="M 23.625 29.5625 C 23.667969 29.582031 23.707031 29.605469 23.75 29.625 C 23.730469 29.667969 23.707031 29.707031 23.6875 29.75 C 23.75 29.769531 23.8125 29.792969 23.875 29.8125 C 23.992188 29.917969 23.992188 29.917969 24.109375 30.050781 C 24.148438 30.09375 24.1875 30.136719 24.230469 30.179688 C 24.3125 30.3125 24.3125 30.3125 24.292969 30.453125 C 24.273438 30.507812 24.273438 30.507812 24.25 30.5625 C 24.160156 30.453125 24.070312 30.34375 23.980469 30.234375 C 23.929688 30.171875 23.878906 30.113281 23.828125 30.050781 C 23.714844 29.910156 23.605469 29.769531 23.5 29.625 C 23.542969 29.605469 23.582031 29.582031 23.625 29.5625 Z M 23.625 29.5625 "/>
<path style=" stroke:none;fill-rule:nonzero;fill:rgb(25.098041%,23.529412%,23.921569%);fill-opacity:1;" d="M 15.5625 28.125 C 15.707031 28.144531 15.851562 28.167969 16 28.1875 C 15.980469 28.25 15.957031 28.3125 15.9375 28.375 C 15.875 28.355469 15.8125 28.332031 15.75 28.3125 C 15.730469 28.375 15.707031 28.4375 15.6875 28.5 C 15.644531 28.5 15.605469 28.5 15.5625 28.5 C 15.5625 28.601562 15.5625 28.707031 15.5625 28.8125 C 15.542969 28.8125 15.519531 28.8125 15.5 28.8125 C 15.492188 28.335938 15.492188 28.335938 15.5625 28.125 Z M 15.8125 28.375 C 15.855469 28.375 15.894531 28.375 15.9375 28.375 C 15.917969 28.4375 15.894531 28.5 15.875 28.5625 C 15.855469 28.5 15.832031 28.4375 15.8125 28.375 Z M 15.8125 28.375 "/>
<path style=" stroke:none;fill-rule:nonzero;fill:rgb(81.176472%,58.431375%,25.098041%);fill-opacity:1;" d="M 21.4375 19.625 C 21.4375 19.8125 21.4375 19.8125 21.347656 19.90625 C 21.316406 19.9375 21.28125 19.96875 21.25 20 C 21.230469 20.0625 21.207031 20.125 21.1875 20.1875 C 21.226562 20.191406 21.265625 20.199219 21.304688 20.203125 C 21.4375 20.25 21.4375 20.25 21.515625 20.378906 C 21.53125 20.417969 21.546875 20.457031 21.5625 20.5 C 21.375 20.5 21.375 20.5 21.203125 20.359375 C 21.0625 20.1875 21.0625 20.1875 21.054688 20.0625 C 21.152344 19.886719 21.289062 19.761719 21.4375 19.625 Z M 21.4375 19.625 "/>
<path style=" stroke:none;fill-rule:nonzero;fill:rgb(90.588236%,65.882355%,29.803923%);fill-opacity:1;" d="M 8.25 31.75 C 8.269531 31.75 8.292969 31.75 8.3125 31.75 C 8.292969 32.210938 8.191406 32.582031 8 33 C 7.980469 33 7.957031 33 7.9375 33 C 7.9375 32.898438 7.9375 32.792969 7.9375 32.6875 C 7.980469 32.6875 8.019531 32.6875 8.0625 32.6875 C 8.066406 32.644531 8.070312 32.605469 8.070312 32.5625 C 8.117188 32.011719 8.117188 32.011719 8.25 31.75 Z M 8.25 31.75 "/>
<path style=" stroke:none;fill-rule:nonzero;fill:rgb(79.215688%,56.078434%,23.137255%);fill-opacity:1;" d="M 27.0625 13.25 C 27.125 13.4375 27.125 13.4375 27.082031 13.570312 C 27 13.6875 27 13.6875 26.867188 13.734375 C 26.808594 13.742188 26.808594 13.742188 26.75 13.75 C 26.730469 13.832031 26.707031 13.914062 26.6875 14 C 26.625 13.980469 26.5625 13.957031 26.5 13.9375 C 26.6875 13.710938 26.871094 13.484375 27.0625 13.25 Z M 27.0625 13.25 "/>
<path style=" stroke:none;fill-rule:nonzero;fill:rgb(23.921569%,14.509805%,5.098039%);fill-opacity:1;" d="M 26.625 7.5 C 26.644531 7.582031 26.667969 7.664062 26.6875 7.75 C 26.453125 7.9375 26.453125 7.9375 26.3125 7.9375 C 26.269531 8.039062 26.230469 8.144531 26.1875 8.25 C 26.125 8.230469 26.0625 8.207031 26 8.1875 C 26.207031 7.960938 26.414062 7.734375 26.625 7.5 Z M 26.625 7.5 "/>
<path style=" stroke:none;fill-rule:nonzero;fill:rgb(26.274511%,16.078432%,4.705882%);fill-opacity:1;" d="M 8.3125 31.75 C 8.355469 31.75 8.394531 31.75 8.4375 31.75 C 8.445312 32.214844 8.445312 32.214844 8.375 32.4375 C 8.332031 32.4375 8.292969 32.4375 8.25 32.4375 C 8.25 32.539062 8.25 32.644531 8.25 32.75 C 8.207031 32.75 8.167969 32.75 8.125 32.75 C 8.1875 32.421875 8.25 32.089844 8.3125 31.75 Z M 8.3125 31.75 "/>
<path style=" stroke:none;fill-rule:nonzero;fill:rgb(90.588236%,64.705884%,26.666668%);fill-opacity:1;" d="M 21.625 20.6875 C 21.6875 20.6875 21.75 20.6875 21.8125 20.6875 C 21.84375 20.738281 21.871094 20.789062 21.902344 20.839844 C 21.984375 21.011719 21.984375 21.011719 22.136719 21.050781 C 22.175781 21.054688 22.210938 21.058594 22.25 21.0625 C 22.230469 21.164062 22.207031 21.269531 22.1875 21.375 C 21.882812 21.085938 21.882812 21.085938 21.8125 20.875 C 21.769531 20.875 21.730469 20.875 21.6875 20.875 C 21.667969 20.8125 21.644531 20.75 21.625 20.6875 Z M 21.625 20.6875 "/>
<path style=" stroke:none;fill-rule:nonzero;fill:rgb(20.392157%,12.941177%,4.313726%);fill-opacity:1;" d="M 19.8125 25.125 C 19.855469 25.125 19.894531 25.125 19.9375 25.125 C 19.9375 25.167969 19.9375 25.207031 19.9375 25.25 C 20.019531 25.269531 20.101562 25.292969 20.1875 25.3125 C 20.195312 25.363281 20.203125 25.414062 20.210938 25.464844 C 20.230469 25.542969 20.230469 25.542969 20.25 25.625 C 20.292969 25.644531 20.332031 25.667969 20.375 25.6875 C 20.355469 25.75 20.332031 25.8125 20.3125 25.875 C 20.3125 25.832031 20.3125 25.792969 20.3125 25.75 C 20.25 25.730469 20.1875 25.707031 20.125 25.6875 C 19.8125 25.351562 19.8125 25.351562 19.8125 25.125 Z M 19.8125 25.125 "/>
<path style=" stroke:none;fill-rule:nonzero;fill:rgb(94.117647%,66.274512%,24.705882%);fill-opacity:1;" d="M 22.75 22.0625 C 22.914062 22.0625 23.078125 22.0625 23.25 22.0625 C 23.1875 22.09375 23.1875 22.09375 23.125 22.125 C 23.167969 22.226562 23.207031 22.332031 23.25 22.4375 C 23.207031 22.480469 23.167969 22.519531 23.125 22.5625 C 23 22.398438 22.878906 22.234375 22.75 22.0625 Z M 22.75 22.0625 "/>
<path style=" stroke:none;fill-rule:nonzero;fill:rgb(85.490197%,60.784316%,25.490198%);fill-opacity:1;" d="M 19.375 24.75 C 19.671875 24.953125 19.824219 25.195312 20 25.5 C 19.917969 25.480469 19.835938 25.457031 19.75 25.4375 C 19.75 25.394531 19.75 25.355469 19.75 25.3125 C 19.6875 25.3125 19.625 25.3125 19.5625 25.3125 C 19.5 25.125 19.4375 24.941406 19.375 24.75 Z M 19.375 24.75 "/>
<path style=" stroke:none;fill-rule:nonzero;fill:rgb(25.490198%,23.921569%,23.529412%);fill-opacity:1;" d="M 15.5625 24.75 C 15.71875 24.78125 15.71875 24.78125 15.875 24.8125 C 15.875 24.976562 15.875 25.140625 15.875 25.3125 C 15.832031 25.3125 15.792969 25.3125 15.75 25.3125 C 15.5625 24.960938 15.5625 24.960938 15.5625 24.75 Z M 15.5625 24.75 "/>
<path style=" stroke:none;fill-rule:nonzero;fill:rgb(74.901962%,53.333336%,20.784314%);fill-opacity:1;" d="M 22.75 18.125 C 22.769531 18.167969 22.792969 18.207031 22.8125 18.25 C 22.652344 18.511719 22.5 18.695312 22.25 18.875 C 22.207031 18.855469 22.167969 18.832031 22.125 18.8125 C 22.195312 18.730469 22.265625 18.644531 22.335938 18.5625 C 22.375 18.515625 22.414062 18.46875 22.453125 18.421875 C 22.488281 18.386719 22.527344 18.351562 22.5625 18.3125 C 22.605469 18.3125 22.644531 18.3125 22.6875 18.3125 C 22.707031 18.25 22.730469 18.1875 22.75 18.125 Z M 22.75 18.125 "/>
<path style=" stroke:none;fill-rule:nonzero;fill:rgb(14.509805%,10.588235%,3.921569%);fill-opacity:1;" d="M 23.8125 16.6875 C 23.875 16.707031 23.9375 16.730469 24 16.75 C 23.941406 16.832031 23.878906 16.914062 23.820312 16.996094 C 23.785156 17.042969 23.753906 17.085938 23.71875 17.132812 C 23.625 17.25 23.625 17.25 23.5 17.3125 C 23.5 17.1875 23.5 17.066406 23.5 16.9375 C 23.542969 16.917969 23.582031 16.894531 23.625 16.875 C 23.667969 16.894531 23.707031 16.917969 23.75 16.9375 C 23.769531 16.855469 23.792969 16.773438 23.8125 16.6875 Z M 23.8125 16.6875 "/>
<path style=" stroke:none;fill-rule:nonzero;fill:rgb(22.352941%,14.117648%,5.098039%);fill-opacity:1;" d="M 27.3125 6.9375 C 27.3125 7.0625 27.3125 7.0625 27.195312 7.195312 C 27.0625 7.3125 27.0625 7.3125 26.9375 7.3125 C 26.9375 7.355469 26.9375 7.394531 26.9375 7.4375 C 26.855469 7.457031 26.773438 7.480469 26.6875 7.5 C 26.804688 7.214844 26.988281 6.9375 27.3125 6.9375 Z M 27.3125 6.9375 "/>
<path style=" stroke:none;fill-rule:nonzero;fill:rgb(81.960785%,59.215689%,23.529412%);fill-opacity:1;" d="M 25.5625 32.125 C 25.84375 32.320312 25.96875 32.511719 26.125 32.8125 C 25.972656 32.765625 25.972656 32.765625 25.8125 32.6875 C 25.773438 32.558594 25.773438 32.558594 25.75 32.4375 C 25.6875 32.417969 25.625 32.394531 25.5625 32.375 C 25.5625 32.292969 25.5625 32.210938 25.5625 32.125 Z M 25.5625 32.125 "/>
<path style=" stroke:none;fill-rule:nonzero;fill:rgb(93.725491%,65.882355%,24.705882%);fill-opacity:1;" d="M 30.25 30.5625 C 30.230469 30.625 30.207031 30.6875 30.1875 30.75 C 30.167969 30.832031 30.144531 30.917969 30.125 31 C 30.019531 30.898438 29.914062 30.792969 29.8125 30.6875 C 29.8125 30.644531 29.8125 30.605469 29.8125 30.5625 C 30.109375 30.492188 30.109375 30.492188 30.25 30.5625 Z M 30.25 30.5625 "/>
<path style=" stroke:none;fill-rule:nonzero;fill:rgb(21.568628%,19.215687%,15.294118%);fill-opacity:1;" d="M 17.4375 17.75 C 17.4375 18.03125 17.300781 18.226562 17.125 18.4375 C 16.949219 18.5 16.949219 18.5 16.8125 18.5 C 16.890625 18.371094 16.976562 18.246094 17.0625 18.125 C 17.105469 18.125 17.144531 18.125 17.1875 18.125 C 17.207031 18.085938 17.222656 18.046875 17.242188 18.007812 C 17.3125 17.875 17.3125 17.875 17.4375 17.75 Z M 17.4375 17.75 "/>
<path style=" stroke:none;fill-rule:nonzero;fill:rgb(25.098041%,16.862746%,5.490196%);fill-opacity:1;" d="M 22.6875 11.9375 C 22.707031 11.980469 22.730469 12.019531 22.75 12.0625 C 22.695312 12.226562 22.65625 12.296875 22.5 12.378906 C 22.457031 12.398438 22.417969 12.417969 22.375 12.4375 C 22.3125 12.53125 22.3125 12.53125 22.25 12.625 C 22.207031 12.605469 22.167969 12.582031 22.125 12.5625 C 22.195312 12.46875 22.265625 12.378906 22.335938 12.285156 C 22.375 12.234375 22.414062 12.183594 22.453125 12.128906 C 22.5625 12 22.5625 12 22.6875 11.9375 Z M 22.6875 11.9375 "/>
<path style=" stroke:none;fill-rule:nonzero;fill:rgb(7.058824%,5.490196%,6.27451%);fill-opacity:1;" d="M 7.8125 33.375 C 7.855469 33.394531 7.894531 33.417969 7.9375 33.4375 C 7.976562 33.597656 7.976562 33.597656 8 33.75 C 7.835938 33.75 7.671875 33.75 7.5 33.75 C 7.671875 33.445312 7.671875 33.445312 7.8125 33.375 Z M 7.8125 33.375 "/>
<path style=" stroke:none;fill-rule:nonzero;fill:rgb(14.901961%,9.803922%,6.27451%);fill-opacity:1;" d="M 21.25 13.5 C 21.3125 13.5 21.375 13.5 21.4375 13.5 C 21.4375 13.5625 21.4375 13.625 21.4375 13.6875 C 21.457031 13.769531 21.476562 13.855469 21.5 13.9375 C 21.3125 13.90625 21.3125 13.90625 21.125 13.875 C 21.179688 13.570312 21.179688 13.570312 21.25 13.5 Z M 21.25 13.5 "/>
<path style=" stroke:none;fill-rule:nonzero;fill:rgb(16.862746%,9.803922%,2.352941%);fill-opacity:1;" d="M 32.1875 7.3125 C 32.25 7.332031 32.3125 7.355469 32.375 7.375 C 32.1875 7.582031 32.003906 7.789062 31.8125 8 C 31.792969 7.9375 31.769531 7.875 31.75 7.8125 C 31.8125 7.792969 31.875 7.769531 31.9375 7.75 C 31.9375 7.707031 31.9375 7.667969 31.9375 7.625 C 31.894531 7.605469 31.855469 7.582031 31.8125 7.5625 C 31.894531 7.5625 31.976562 7.5625 32.0625 7.5625 C 32.0625 7.519531 32.0625 7.480469 32.0625 7.4375 C 32.105469 7.4375 32.144531 7.4375 32.1875 7.4375 C 32.1875 7.394531 32.1875 7.355469 32.1875 7.3125 Z M 32.1875 7.3125 "/>
<path style=" stroke:none;fill-rule:nonzero;fill:rgb(11.764706%,9.411765%,5.098039%);fill-opacity:1;" d="M 27.1875 12.6875 C 27.289062 12.707031 27.394531 12.730469 27.5 12.75 C 27.414062 12.949219 27.375 13 27.1875 13.125 C 27.117188 12.828125 27.117188 12.828125 27.1875 12.6875 Z M 27.1875 12.6875 "/>
<path style=" stroke:none;fill-rule:nonzero;fill:rgb(22.745098%,13.725491%,7.450981%);fill-opacity:1;" d="M 9.25 6.4375 C 9.25 6.613281 9.226562 6.765625 9.1875 6.9375 C 9.0625 6.894531 8.941406 6.855469 8.8125 6.8125 C 8.832031 6.769531 8.855469 6.730469 8.875 6.6875 C 8.917969 6.6875 8.957031 6.6875 9 6.6875 C 9.019531 6.625 9.042969 6.5625 9.0625 6.5 C 9.125 6.480469 9.1875 6.457031 9.25 6.4375 Z M 9.25 6.4375 "/>
<path style=" stroke:none;fill-rule:nonzero;fill:rgb(28.235295%,17.647059%,5.490196%);fill-opacity:1;" d="M 23.25 22.75 C 23.34375 22.8125 23.34375 22.8125 23.4375 22.875 C 23.4375 22.917969 23.4375 22.957031 23.4375 23 C 23.5 23.019531 23.5625 23.042969 23.625 23.0625 C 23.730469 23.253906 23.730469 23.253906 23.8125 23.4375 C 23.769531 23.4375 23.730469 23.4375 23.6875 23.4375 C 23.6875 23.394531 23.6875 23.355469 23.6875 23.3125 C 23.648438 23.308594 23.613281 23.308594 23.574219 23.304688 C 23.4375 23.25 23.4375 23.25 23.328125 23.066406 C 23.25 22.875 23.25 22.875 23.25 22.75 Z M 23.25 22.75 "/>
<path style=" stroke:none;fill-rule:nonzero;fill:rgb(81.960785%,58.431375%,23.921569%);fill-opacity:1;" d="M 22 19 C 22.019531 19.0625 22.042969 19.125 22.0625 19.1875 C 21.910156 19.429688 21.773438 19.542969 21.5 19.625 C 21.558594 19.542969 21.621094 19.464844 21.679688 19.382812 C 21.714844 19.335938 21.746094 19.292969 21.78125 19.246094 C 21.875 19.125 21.875 19.125 22 19 Z M 22 19 "/>
<path style=" stroke:none;fill-rule:nonzero;fill:rgb(12.156863%,9.019608%,3.921569%);fill-opacity:1;" d="M 22.3125 18.3125 C 22.394531 18.332031 22.476562 18.355469 22.5625 18.375 C 22.4375 18.519531 22.316406 18.664062 22.1875 18.8125 C 22.167969 18.730469 22.144531 18.648438 22.125 18.5625 C 22.167969 18.5625 22.207031 18.5625 22.25 18.5625 C 22.269531 18.480469 22.292969 18.398438 22.3125 18.3125 Z M 22.3125 18.3125 "/>
<path style=" stroke:none;fill-rule:nonzero;fill:rgb(12.54902%,9.019608%,3.529412%);fill-opacity:1;" d="M 23.1875 17.5625 C 23.109375 17.808594 23.03125 17.925781 22.8125 18.0625 C 22.796875 17.917969 22.796875 17.917969 22.8125 17.75 C 22.941406 17.625 23.007812 17.5625 23.1875 17.5625 Z M 23.1875 17.5625 "/>
<path style=" stroke:none;fill-rule:nonzero;fill:rgb(21.568628%,13.725491%,6.666667%);fill-opacity:1;" d="M 20.3125 14.5625 C 20.375 14.582031 20.4375 14.605469 20.5 14.625 C 20.5 14.667969 20.5 14.707031 20.5 14.75 C 20.40625 14.832031 20.40625 14.832031 20.28125 14.914062 C 20.242188 14.941406 20.199219 14.96875 20.15625 15 C 20.125 15.019531 20.09375 15.039062 20.0625 15.0625 C 20.019531 15.042969 19.980469 15.019531 19.9375 15 C 20.0625 14.855469 20.183594 14.710938 20.3125 14.5625 Z M 20.3125 14.5625 "/>
<path style=" stroke:none;fill-rule:nonzero;fill:rgb(15.686275%,9.019608%,4.705882%);fill-opacity:1;" d="M 32.75 6.5625 C 32.832031 6.5625 32.914062 6.5625 33 6.5625 C 32.90625 6.800781 32.765625 6.914062 32.5625 7.0625 C 32.582031 6.9375 32.605469 6.816406 32.625 6.6875 C 32.6875 6.707031 32.75 6.730469 32.8125 6.75 C 32.792969 6.6875 32.769531 6.625 32.75 6.5625 Z M 32.75 6.5625 "/>
<path style=" stroke:none;fill-rule:nonzero;fill:rgb(80.392158%,56.862748%,23.529412%);fill-opacity:1;" d="M 24.0625 30.3125 C 24.230469 30.480469 24.394531 30.644531 24.5625 30.8125 C 24.542969 30.855469 24.519531 30.894531 24.5 30.9375 C 24.382812 30.925781 24.382812 30.925781 24.25 30.875 C 24.183594 30.746094 24.183594 30.746094 24.140625 30.589844 C 24.125 30.539062 24.109375 30.488281 24.09375 30.433594 C 24.085938 30.394531 24.074219 30.355469 24.0625 30.3125 Z M 24.0625 30.3125 "/>
<path style=" stroke:none;fill-rule:nonzero;fill:rgb(33.333334%,23.137255%,8.627451%);fill-opacity:1;" d="M 22.1875 21.4375 C 22.390625 21.636719 22.578125 21.835938 22.75 22.0625 C 22.6875 22.09375 22.6875 22.09375 22.625 22.125 C 22.625 22.082031 22.625 22.042969 22.625 22 C 22.585938 21.996094 22.546875 21.992188 22.507812 21.988281 C 22.375 21.9375 22.375 21.9375 22.300781 21.789062 C 22.277344 21.707031 22.277344 21.707031 22.25 21.625 C 22.230469 21.5625 22.207031 21.5 22.1875 21.4375 Z M 22.1875 21.4375 "/>
<path style=" stroke:none;fill-rule:nonzero;fill:rgb(90.588236%,64.313728%,25.882354%);fill-opacity:1;" d="M 27.1875 6.5625 C 27.289062 6.582031 27.394531 6.605469 27.5 6.625 C 27.203125 6.929688 27.203125 6.929688 27.0625 7 C 27.097656 6.851562 27.140625 6.707031 27.1875 6.5625 Z M 27.1875 6.5625 "/>
<path style=" stroke:none;fill-rule:nonzero;fill:rgb(82.352942%,60.000002%,25.098041%);fill-opacity:1;" d="M 9.667969 6.179688 C 9.742188 6.179688 9.742188 6.179688 9.820312 6.183594 C 9.878906 6.183594 9.878906 6.183594 9.9375 6.1875 C 9.9375 6.207031 9.9375 6.230469 9.9375 6.25 C 9.8125 6.25 9.691406 6.25 9.5625 6.25 C 9.5625 6.292969 9.5625 6.332031 9.5625 6.375 C 9.4375 6.417969 9.316406 6.457031 9.1875 6.5 C 9.1875 6.4375 9.1875 6.375 9.1875 6.3125 C 9.386719 6.179688 9.4375 6.171875 9.667969 6.179688 Z M 9.667969 6.179688 "/>
<path style=" stroke:none;fill-rule:nonzero;fill:rgb(92.156863%,66.666669%,27.843139%);fill-opacity:1;" d="M 27.5 33.6875 C 27.871094 33.78125 27.871094 33.78125 28.25 33.875 C 28.25 33.894531 28.25 33.917969 28.25 33.9375 C 27.714844 33.945312 27.714844 33.945312 27.5 33.875 C 27.5 33.8125 27.5 33.75 27.5 33.6875 Z M 27.5 33.6875 "/>
<path style=" stroke:none;fill-rule:nonzero;fill:rgb(29.803923%,19.607843%,8.235294%);fill-opacity:1;" d="M 27.375 33.5625 C 27.539062 33.5625 27.703125 33.5625 27.875 33.5625 C 27.875 33.605469 27.875 33.644531 27.875 33.6875 C 27.9375 33.730469 28 33.769531 28.0625 33.8125 C 27.777344 33.785156 27.589844 33.757812 27.375 33.5625 Z M 27.375 33.5625 "/>
<path style=" stroke:none;fill-rule:nonzero;fill:rgb(20.392157%,14.117648%,5.098039%);fill-opacity:1;" d="M 30 31.0625 C 30.25 31.195312 30.398438 31.335938 30.5625 31.5625 C 30.5 31.59375 30.5 31.59375 30.4375 31.625 C 30.417969 31.582031 30.394531 31.542969 30.375 31.5 C 30.3125 31.480469 30.25 31.457031 30.1875 31.4375 C 30 31.222656 30 31.222656 30 31.0625 Z M 30 31.0625 "/>
<path style=" stroke:none;fill-rule:nonzero;fill:rgb(14.117648%,7.450981%,1.960784%);fill-opacity:1;" d="M 24.625 30.9375 C 24.777344 30.984375 24.777344 30.984375 24.9375 31.0625 C 24.976562 31.191406 24.976562 31.191406 25 31.3125 C 25.0625 31.332031 25.125 31.355469 25.1875 31.375 C 25.167969 31.4375 25.144531 31.5 25.125 31.5625 C 25.042969 31.46875 24.957031 31.378906 24.875 31.285156 C 24.828125 31.234375 24.78125 31.183594 24.734375 31.128906 C 24.625 31 24.625 31 24.625 30.9375 Z M 24.625 30.9375 "/>
<path style=" stroke:none;fill-rule:nonzero;fill:rgb(19.607843%,11.764706%,3.529412%);fill-opacity:1;" d="M 19.125 24.375 C 19.355469 24.4375 19.425781 24.480469 19.554688 24.6875 C 19.578125 24.75 19.601562 24.8125 19.625 24.875 C 19.605469 24.917969 19.582031 24.957031 19.5625 25 C 19.488281 24.90625 19.417969 24.816406 19.34375 24.722656 C 19.304688 24.671875 19.261719 24.621094 19.21875 24.566406 C 19.125 24.4375 19.125 24.4375 19.125 24.375 Z M 19.125 24.375 "/>
<path style=" stroke:none;fill-rule:nonzero;fill:rgb(89.019608%,62.352943%,22.352941%);fill-opacity:1;" d="M 23.3125 29.4375 C 23.414062 29.539062 23.519531 29.644531 23.625 29.75 C 23.5625 29.84375 23.5625 29.84375 23.5 29.9375 C 23.4375 29.917969 23.375 29.894531 23.3125 29.875 C 23.292969 29.8125 23.269531 29.75 23.25 29.6875 C 23.292969 29.667969 23.332031 29.644531 23.375 29.625 C 23.355469 29.5625 23.332031 29.5 23.3125 29.4375 Z M 23.3125 29.4375 "/>
<path style=" stroke:none;fill-rule:nonzero;fill:rgb(20.784314%,18.82353%,17.647059%);fill-opacity:1;" d="M 18 23.0625 C 18.144531 23.0625 18.289062 23.0625 18.4375 23.0625 C 18.417969 23.207031 18.394531 23.351562 18.375 23.5 C 18.070312 23.203125 18.070312 23.203125 18 23.0625 Z M 18 23.0625 "/>
<path style=" stroke:none;fill-rule:nonzero;fill:rgb(14.901961%,9.803922%,2.745098%);fill-opacity:1;" d="M 21.0625 20.3125 C 21.265625 20.335938 21.3125 20.375 21.453125 20.535156 C 21.488281 20.585938 21.523438 20.636719 21.5625 20.6875 C 21.386719 20.664062 21.277344 20.644531 21.136719 20.535156 C 21.0625 20.4375 21.0625 20.4375 21.0625 20.3125 Z M 21.0625 20.3125 "/>
<path style=" stroke:none;fill-rule:nonzero;fill:rgb(81.176472%,58.431375%,23.921569%);fill-opacity:1;" d="M 25.75 14.75 C 25.8125 14.875 25.8125 14.875 25.777344 15.03125 C 25.6875 15.1875 25.6875 15.1875 25.492188 15.269531 C 25.433594 15.285156 25.375 15.296875 25.3125 15.3125 C 25.375 15.230469 25.433594 15.148438 25.496094 15.066406 C 25.53125 15.019531 25.5625 14.976562 25.597656 14.929688 C 25.6875 14.8125 25.6875 14.8125 25.75 14.75 Z M 25.75 14.75 "/>
<path style=" stroke:none;fill-rule:nonzero;fill:rgb(80.000001%,56.470591%,22.745098%);fill-opacity:1;" d="M 27.8125 12.4375 C 27.832031 12.480469 27.855469 12.519531 27.875 12.5625 C 27.738281 12.855469 27.738281 12.855469 27.550781 12.925781 C 27.511719 12.929688 27.476562 12.933594 27.4375 12.9375 C 27.671875 12.578125 27.671875 12.578125 27.8125 12.4375 Z M 27.8125 12.4375 "/>
<path style=" stroke:none;fill-rule:nonzero;fill:rgb(19.215687%,10.980392%,3.137255%);fill-opacity:1;" d="M 8.0625 32.75 C 8.125 33 8.125 33 8.015625 33.203125 C 7.96875 33.261719 7.921875 33.316406 7.875 33.375 C 7.8125 33.375 7.75 33.375 7.6875 33.375 C 7.8125 33.167969 7.933594 32.960938 8.0625 32.75 Z M 8.0625 32.75 "/>
<path style=" stroke:none;fill-rule:nonzero;fill:rgb(88.627452%,61.960787%,25.490198%);fill-opacity:1;" d="M 20.375 26 C 20.609375 26.078125 20.636719 26.164062 20.75 26.375 C 20.632812 26.414062 20.632812 26.414062 20.5 26.4375 C 20.457031 26.394531 20.417969 26.355469 20.375 26.3125 C 20.375 26.207031 20.375 26.105469 20.375 26 Z M 20.375 26 "/>
<path style=" stroke:none;fill-rule:nonzero;fill:rgb(80.000001%,57.254905%,23.137255%);fill-opacity:1;" d="M 25.25 15.3125 C 25.289062 15.425781 25.289062 15.425781 25.3125 15.5625 C 25.25 15.65625 25.25 15.65625 25.1875 15.75 C 25.105469 15.730469 25.023438 15.707031 24.9375 15.6875 C 24.980469 15.625 25.019531 15.5625 25.0625 15.5 C 25.105469 15.5 25.144531 15.5 25.1875 15.5 C 25.207031 15.4375 25.230469 15.375 25.25 15.3125 Z M 25.25 15.3125 "/>
<path style=" stroke:none;fill-rule:nonzero;fill:rgb(18.82353%,12.54902%,5.098039%);fill-opacity:1;" d="M 25.375 25.5 C 25.578125 25.535156 25.675781 25.59375 25.8125 25.75 C 25.792969 25.792969 25.769531 25.832031 25.75 25.875 C 25.6875 25.855469 25.625 25.832031 25.5625 25.8125 C 25.5625 25.769531 25.5625 25.730469 25.5625 25.6875 C 25.5 25.667969 25.4375 25.644531 25.375 25.625 C 25.375 25.582031 25.375 25.542969 25.375 25.5 Z M 25.375 25.5 "/>
<path style=" stroke:none;fill-rule:nonzero;fill:rgb(30.588236%,20.392157%,7.058824%);fill-opacity:1;" d="M 22.8125 22.25 C 23.042969 22.328125 23.109375 22.433594 23.25 22.625 C 23.230469 22.667969 23.207031 22.707031 23.1875 22.75 C 23.160156 22.71875 23.132812 22.691406 23.105469 22.660156 C 23 22.546875 23 22.546875 22.8125 22.5 C 22.8125 22.417969 22.8125 22.335938 22.8125 22.25 Z M 22.8125 22.25 "/>
<path style=" stroke:none;fill-rule:nonzero;fill:rgb(14.117648%,11.372549%,9.803922%);fill-opacity:1;" d="M 16.6875 21.1875 C 16.730469 21.1875 16.769531 21.1875 16.8125 21.1875 C 16.9375 21.375 16.9375 21.375 16.914062 21.511719 C 16.902344 21.550781 16.886719 21.585938 16.875 21.625 C 16.792969 21.542969 16.710938 21.460938 16.625 21.375 C 16.644531 21.3125 16.667969 21.25 16.6875 21.1875 Z M 16.6875 21.1875 "/>
<path style=" stroke:none;fill-rule:nonzero;fill:rgb(85.490197%,59.607846%,22.745098%);fill-opacity:1;" d="M 26.0625 14.375 C 26.082031 14.375 26.105469 14.375 26.125 14.375 C 26.140625 14.515625 26.140625 14.515625 26.125 14.6875 C 26 14.832031 26 14.832031 25.875 14.9375 C 25.828125 14.832031 25.828125 14.832031 25.8125 14.6875 C 25.929688 14.515625 25.929688 14.515625 26.0625 14.375 Z M 26.0625 14.375 "/>
<path style=" stroke:none;fill-rule:nonzero;fill:rgb(79.607844%,55.686277%,21.176471%);fill-opacity:1;" d="M 29.875 10.125 C 29.894531 10.167969 29.917969 10.207031 29.9375 10.25 C 29.847656 10.414062 29.847656 10.414062 29.75 10.5625 C 29.667969 10.542969 29.585938 10.519531 29.5 10.5 C 29.5625 10.480469 29.625 10.457031 29.6875 10.4375 C 29.757812 10.316406 29.757812 10.316406 29.8125 10.1875 C 29.832031 10.167969 29.855469 10.144531 29.875 10.125 Z M 29.875 10.125 "/>
<path style=" stroke:none;fill-rule:nonzero;fill:rgb(76.862746%,54.509807%,22.352941%);fill-opacity:1;" d="M 31.625 8.125 C 31.644531 8.167969 31.667969 8.207031 31.6875 8.25 C 31.550781 8.542969 31.550781 8.542969 31.363281 8.613281 C 31.324219 8.617188 31.289062 8.621094 31.25 8.625 C 31.339844 8.414062 31.457031 8.28125 31.625 8.125 Z M 31.625 8.125 "/>
<path style=" stroke:none;fill-rule:nonzero;fill:rgb(72.941178%,51.372552%,20.784314%);fill-opacity:1;" d="M 8.5625 6.8125 C 8.644531 6.8125 8.726562 6.8125 8.8125 6.8125 C 8.792969 6.847656 8.777344 6.882812 8.757812 6.917969 C 8.683594 7.066406 8.621094 7.21875 8.5625 7.375 C 8.488281 7.15625 8.519531 7.035156 8.5625 6.8125 Z M 8.5625 6.8125 "/>
<path style=" stroke:none;fill-rule:nonzero;fill:rgb(7.450981%,5.882353%,5.098039%);fill-opacity:1;" d="M 13.0625 33 C 13.1875 33 13.308594 33 13.4375 33 C 13.375 33.1875 13.375 33.1875 13.25 33.3125 C 13.1875 33.269531 13.125 33.230469 13.0625 33.1875 C 13.0625 33.125 13.0625 33.0625 13.0625 33 Z M 13.0625 33 "/>
<path style=" stroke:none;fill-rule:nonzero;fill:rgb(7.450981%,5.098039%,5.098039%);fill-opacity:1;" d="M 28.4375 29.125 C 28.539062 29.226562 28.644531 29.332031 28.75 29.4375 C 28.574219 29.4375 28.421875 29.414062 28.25 29.375 C 28.25 29.332031 28.25 29.292969 28.25 29.25 C 28.3125 29.25 28.375 29.25 28.4375 29.25 C 28.4375 29.207031 28.4375 29.167969 28.4375 29.125 Z M 28.4375 29.125 "/>
<path style=" stroke:none;fill-rule:nonzero;fill:rgb(20.392157%,13.725491%,5.098039%);fill-opacity:1;" d="M 25 24.9375 C 25.101562 25 25.207031 25.0625 25.3125 25.125 C 25.292969 25.207031 25.269531 25.289062 25.25 25.375 C 25.0625 25.25 25.0625 25.25 25.019531 25.085938 C 25.011719 25.035156 25.007812 24.988281 25 24.9375 Z M 25 24.9375 "/>
<path style=" stroke:none;fill-rule:nonzero;fill:rgb(17.647059%,12.54902%,3.921569%);fill-opacity:1;" d="M 28.375 11.5625 C 28.4375 11.5625 28.5 11.5625 28.5625 11.5625 C 28.476562 11.773438 28.375 11.875 28.1875 12 C 28.226562 11.816406 28.265625 11.726562 28.375 11.5625 Z M 28.375 11.5625 "/>
<path style=" stroke:none;fill-rule:nonzero;fill:rgb(21.568628%,13.725491%,5.882353%);fill-opacity:1;" d="M 23.9375 10.5 C 24 10.5 24.0625 10.5 24.125 10.5 C 24.078125 10.621094 24.078125 10.621094 24 10.75 C 23.867188 10.796875 23.867188 10.796875 23.75 10.8125 C 23.867188 10.570312 23.867188 10.570312 23.9375 10.5 Z M 23.9375 10.5 "/>
<path style=" stroke:none;fill-rule:nonzero;fill:rgb(17.647059%,11.372549%,3.921569%);fill-opacity:1;" d="M 27.5 28 C 27.664062 28.066406 27.738281 28.101562 27.828125 28.257812 C 27.84375 28.296875 27.859375 28.335938 27.875 28.375 C 27.832031 28.375 27.792969 28.375 27.75 28.375 C 27.75 28.332031 27.75 28.292969 27.75 28.25 C 27.667969 28.269531 27.585938 28.292969 27.5 28.3125 C 27.5 28.210938 27.5 28.105469 27.5 28 Z M 27.5 28 "/>
<path style=" stroke:none;fill-rule:nonzero;fill:rgb(16.470589%,10.588235%,4.313726%);fill-opacity:1;" d="M 26.1875 26.3125 C 26.289062 26.414062 26.394531 26.519531 26.5 26.625 C 26.480469 26.6875 26.457031 26.75 26.4375 26.8125 C 26.25 26.6875 26.25 26.6875 26.207031 26.492188 C 26.199219 26.433594 26.195312 26.375 26.1875 26.3125 Z M 26.1875 26.3125 "/>
<path style=" stroke:none;fill-rule:nonzero;fill:rgb(22.745098%,14.901961%,6.666667%);fill-opacity:1;" d="M 24.6875 24.5 C 24.789062 24.601562 24.894531 24.707031 25 24.8125 C 24.835938 24.769531 24.671875 24.730469 24.5 24.6875 C 24.5625 24.625 24.625 24.5625 24.6875 24.5 Z M 24.6875 24.5 "/>
<path style=" stroke:none;fill-rule:nonzero;fill:rgb(14.901961%,10.196079%,4.705882%);fill-opacity:1;" d="M 26.5625 13.5625 C 26.605469 13.625 26.644531 13.6875 26.6875 13.75 C 26.585938 13.851562 26.480469 13.957031 26.375 14.0625 C 26.375 13.960938 26.375 13.855469 26.375 13.75 C 26.4375 13.75 26.5 13.75 26.5625 13.75 C 26.5625 13.6875 26.5625 13.625 26.5625 13.5625 Z M 26.5625 13.5625 "/>
<path style=" stroke:none;fill-rule:nonzero;fill:rgb(87.843138%,62.7451%,25.098041%);fill-opacity:1;" d="M 22.625 11.6875 C 22.75 11.71875 22.75 11.71875 22.875 11.75 C 22.789062 11.875 22.789062 11.875 22.6875 12 C 22.644531 12 22.605469 12 22.5625 12 C 22.582031 11.898438 22.605469 11.792969 22.625 11.6875 Z M 22.625 11.6875 "/>
<path style=" stroke:none;fill-rule:nonzero;fill:rgb(23.529412%,15.686275%,5.490196%);fill-opacity:1;" d="M 23.5625 10.9375 C 23.605469 10.9375 23.644531 10.9375 23.6875 10.9375 C 23.679688 11.054688 23.679688 11.054688 23.625 11.1875 C 23.433594 11.265625 23.433594 11.265625 23.25 11.3125 C 23.292969 11.25 23.332031 11.1875 23.375 11.125 C 23.417969 11.125 23.457031 11.125 23.5 11.125 C 23.519531 11.0625 23.542969 11 23.5625 10.9375 Z M 23.5625 10.9375 "/>
<path style=" stroke:none;fill-rule:nonzero;fill:rgb(91.37255%,64.313728%,25.882354%);fill-opacity:1;" d="M 24.4375 9.625 C 24.519531 9.667969 24.601562 9.707031 24.6875 9.75 C 24.585938 9.832031 24.480469 9.914062 24.375 10 C 24.371094 9.894531 24.371094 9.792969 24.375 9.6875 C 24.394531 9.667969 24.417969 9.644531 24.4375 9.625 Z M 24.4375 9.625 "/>
<path style=" stroke:none;fill-rule:nonzero;fill:rgb(76.862746%,75.294119%,72.549021%);fill-opacity:1;" d="M 13.25 7.125 C 13.292969 7.234375 13.292969 7.234375 13.3125 7.375 C 13.230469 7.515625 13.230469 7.515625 13.125 7.625 C 13.082031 7.625 13.042969 7.625 13 7.625 C 13.070312 7.4375 13.140625 7.292969 13.25 7.125 Z M 13.25 7.125 "/>
</g>
</svg>
